<?xml version="1.0" encoding="utf-8" standalone="no"?>
<!DOCTYPE svg PUBLIC "-//W3C//DTD SVG 1.1//EN"
  "http://www.w3.org/Graphics/SVG/1.1/DTD/svg11.dtd">
<svg xmlns:xlink="http://www.w3.org/1999/xlink" width="247.626pt" height="163pt" viewBox="0 0 247.626 163" xmlns="http://www.w3.org/2000/svg" version="1.1">
 <metadata>
  <rdf:RDF xmlns:dc="http://purl.org/dc/elements/1.1/" xmlns:cc="http://creativecommons.org/ns#" xmlns:rdf="http://www.w3.org/1999/02/22-rdf-syntax-ns#">
   <cc:Work>
    <dc:type rdf:resource="http://purl.org/dc/dcmitype/StillImage"/>
    <dc:date>2026-07-26T15:09:18.166151</dc:date>
    <dc:format>image/svg+xml</dc:format>
    <dc:creator>
     <cc:Agent>
      <dc:title>Matplotlib v3.10.9, https://matplotlib.org/</dc:title>
     </cc:Agent>
    </dc:creator>
   </cc:Work>
  </rdf:RDF>
 </metadata>
 <defs>
  <style type="text/css">*{stroke-linejoin: round; stroke-linecap: butt}</style>
 </defs>
 <g id="figure_1">
  <g id="patch_1">
   <path d="M 0 163 
L 247.626 163 
L 247.626 0 
L 0 0 
z
" style="fill: #ffffff"/>
  </g>
  <g id="axes_1">
   <g id="patch_2">
    <path d="M 43.668 108.28 
C 48.441656 108.28 53.020438 106.383406 56.395922 103.007922 
C 59.771406 99.632438 61.668 95.053656 61.668 90.28 
C 61.668 85.506344 59.771406 80.927562 56.395922 77.552078 
C 53.020438 74.176594 48.441656 72.28 43.668 72.28 
C 38.894344 72.28 34.315562 74.176594 30.940078 77.552078 
C 27.564594 80.927562 25.668 85.506344 25.668 90.28 
C 25.668 95.053656 27.564594 99.632438 30.940078 103.007922 
C 34.315562 106.383406 38.894344 108.28 43.668 108.28 
L 43.668 108.28 
z
" clip-path="url(#p77c8c983a9)" style="fill: none; stroke: #000000; stroke-width: 2; stroke-linejoin: miter"/>
   </g>
   <g id="line2d_1">
    <path d="M 43.668 135.28 
L 43.668 108.28 
L 43.668 108.28 
M 43.668 72.28 
L 43.668 72.28 
L 43.668 45.28 
" clip-path="url(#p77c8c983a9)" style="fill: none; stroke: #000000; stroke-width: 2; stroke-linecap: round"/>
   </g>
   <g id="line2d_2">
    <path d="M 47.268 99.28 
L 40.068 99.28 
" clip-path="url(#p77c8c983a9)" style="fill: none; stroke: #000000; stroke-width: 2; stroke-linecap: round"/>
   </g>
   <g id="line2d_3">
    <path d="M 43.668 84.88 
L 43.668 77.68 
" clip-path="url(#p77c8c983a9)" style="fill: none; stroke: #000000; stroke-width: 2; stroke-linecap: round"/>
   </g>
   <g id="line2d_4">
    <path d="M 47.268 81.28 
L 40.068 81.28 
" clip-path="url(#p77c8c983a9)" style="fill: none; stroke: #000000; stroke-width: 2; stroke-linecap: round"/>
   </g>
   <g id="line2d_5">
    <path d="M 43.668 45.28 
L 88.668 45.28 
L 133.668 45.28 
" clip-path="url(#p77c8c983a9)" style="fill: none; stroke: #000000; stroke-width: 2; stroke-linecap: round"/>
   </g>
   <g id="line2d_6">
    <path d="M 133.668 45.28 
L 160.668 45.28 
L 163.668 36.28 
L 169.668 54.28 
L 175.668 36.28 
L 181.668 54.28 
L 187.668 36.28 
L 193.668 54.28 
L 196.668 45.28 
L 223.668 45.28 
" clip-path="url(#p77c8c983a9)" style="fill: none; stroke: #000000; stroke-width: 2; stroke-linecap: round"/>
   </g>
   <g id="line2d_7">
    <path d="M 223.668 45.28 
L 223.668 72.28 
L 232.668 75.28 
L 214.668 81.28 
L 232.668 87.28 
L 214.668 93.28 
L 232.668 99.28 
L 214.668 105.28 
L 223.668 108.28 
L 223.668 135.28 
" clip-path="url(#p77c8c983a9)" style="fill: none; stroke: #000000; stroke-width: 2; stroke-linecap: round"/>
   </g>
   <g id="line2d_8">
    <path d="M 223.668 135.28 
L 178.668 135.28 
L 133.668 135.28 
" clip-path="url(#p77c8c983a9)" style="fill: none; stroke: #000000; stroke-width: 2; stroke-linecap: round"/>
   </g>
   <g id="line2d_9">
    <path d="M 133.668 135.28 
L 88.668 135.28 
L 43.668 135.28 
" clip-path="url(#p77c8c983a9)" style="fill: none; stroke: #000000; stroke-width: 2; stroke-linecap: round"/>
   </g>
   <g id="line2d_10">
    <path d="M 43.668 135.28 
L 43.668 149.68 
L 34.668 149.68 
L 52.668 149.68 
M 37.368 154 
L 49.968 154 
M 41.868 158.32 
L 45.468 158.32 
" clip-path="url(#p77c8c983a9)" style="fill: none; stroke: #000000; stroke-width: 2; stroke-linecap: round"/>
   </g>
   <g id="text_1">
    <!-- V1 -->
    <g transform="translate(3.583625 87.368437) scale(0.14 -0.14)">
     <defs>
      <path id="DejaVuSans-56" d="M 1831 0 
L 50 4666 
L 709 4666 
L 2188 738 
L 3669 4666 
L 4325 4666 
L 2547 0 
L 1831 0 
z
" transform="scale(0.015625)"/>
      <path id="DejaVuSans-31" d="M 794 531 
L 1825 531 
L 1825 4091 
L 703 3866 
L 703 4441 
L 1819 4666 
L 2450 4666 
L 2450 531 
L 3481 531 
L 3481 0 
L 794 0 
L 794 531 
z
" transform="scale(0.015625)"/>
     </defs>
     <use xlink:href="#DejaVuSans-56"/>
     <use xlink:href="#DejaVuSans-31" transform="translate(68.408203 0)"/>
    </g>
    <!-- 5V -->
    <g transform="translate(3.583625 100.917812) scale(0.14 -0.14)">
     <defs>
      <path id="DejaVuSans-35" d="M 691 4666 
L 3169 4666 
L 3169 4134 
L 1269 4134 
L 1269 2991 
Q 1406 3038 1543 3061 
Q 1681 3084 1819 3084 
Q 2600 3084 3056 2656 
Q 3513 2228 3513 1497 
Q 3513 744 3044 326 
Q 2575 -91 1722 -91 
Q 1428 -91 1123 -41 
Q 819 9 494 109 
L 494 744 
Q 775 591 1075 516 
Q 1375 441 1709 441 
Q 2250 441 2565 725 
Q 2881 1009 2881 1497 
Q 2881 1984 2565 2268 
Q 2250 2553 1709 2553 
Q 1456 2553 1204 2497 
Q 953 2441 691 2322 
L 691 4666 
z
" transform="scale(0.015625)"/>
     </defs>
     <use xlink:href="#DejaVuSans-35"/>
     <use xlink:href="#DejaVuSans-56" transform="translate(63.623047 0)"/>
    </g>
   </g>
   <g id="text_2">
    <!-- R1 -->
    <g transform="translate(169.350344 16.219062) scale(0.14 -0.14)">
     <defs>
      <path id="DejaVuSans-52" d="M 2841 2188 
Q 3044 2119 3236 1894 
Q 3428 1669 3622 1275 
L 4263 0 
L 3584 0 
L 2988 1197 
Q 2756 1666 2539 1819 
Q 2322 1972 1947 1972 
L 1259 1972 
L 1259 0 
L 628 0 
L 628 4666 
L 2053 4666 
Q 2853 4666 3247 4331 
Q 3641 3997 3641 3322 
Q 3641 2881 3436 2590 
Q 3231 2300 2841 2188 
z
M 1259 4147 
L 1259 2491 
L 2053 2491 
Q 2509 2491 2742 2702 
Q 2975 2913 2975 3322 
Q 2975 3731 2742 3939 
Q 2509 4147 2053 4147 
L 1259 4147 
z
" transform="scale(0.015625)"/>
     </defs>
     <use xlink:href="#DejaVuSans-52"/>
     <use xlink:href="#DejaVuSans-31" transform="translate(69.482422 0)"/>
    </g>
    <!-- 110$\Omega$ -->
    <g transform="translate(159.908 29.768437) scale(0.14 -0.14)">
     <defs>
      <path id="DejaVuSans-30" d="M 2034 4250 
Q 1547 4250 1301 3770 
Q 1056 3291 1056 2328 
Q 1056 1369 1301 889 
Q 1547 409 2034 409 
Q 2525 409 2770 889 
Q 3016 1369 3016 2328 
Q 3016 3291 2770 3770 
Q 2525 4250 2034 4250 
z
M 2034 4750 
Q 2819 4750 3233 4129 
Q 3647 3509 3647 2328 
Q 3647 1150 3233 529 
Q 2819 -91 2034 -91 
Q 1250 -91 836 529 
Q 422 1150 422 2328 
Q 422 3509 836 4129 
Q 1250 4750 2034 4750 
z
" transform="scale(0.015625)"/>
      <path id="DejaVuSans-3a9" d="M 4647 556 
L 4647 0 
L 2772 0 
L 2772 556 
Q 3325 859 3634 1378 
Q 3944 1897 3944 2528 
Q 3944 3278 3531 3731 
Q 3119 4184 2444 4184 
Q 1769 4184 1355 3729 
Q 941 3275 941 2528 
Q 941 1897 1250 1378 
Q 1563 859 2119 556 
L 2119 0 
L 244 0 
L 244 556 
L 1241 556 
Q 747 991 519 1456 
Q 294 1922 294 2497 
Q 294 3491 894 4106 
Q 1491 4722 2444 4722 
Q 3391 4722 3994 4106 
Q 4594 3494 4594 2528 
Q 4594 1922 4372 1459 
Q 4150 997 3647 556 
L 4647 556 
z
" transform="scale(0.015625)"/>
     </defs>
     <use xlink:href="#DejaVuSans-31" transform="translate(0 0.78125)"/>
     <use xlink:href="#DejaVuSans-31" transform="translate(63.623047 0.78125)"/>
     <use xlink:href="#DejaVuSans-30" transform="translate(127.246094 0.78125)"/>
     <use xlink:href="#DejaVuSans-3a9" transform="translate(190.869141 0.78125)"/>
    </g>
   </g>
   <g id="text_3">
    <!-- R2 -->
    <g transform="translate(192.432687 87.368437) scale(0.14 -0.14)">
     <defs>
      <path id="DejaVuSans-32" d="M 1228 531 
L 3431 531 
L 3431 0 
L 469 0 
L 469 531 
Q 828 903 1448 1529 
Q 2069 2156 2228 2338 
Q 2531 2678 2651 2914 
Q 2772 3150 2772 3378 
Q 2772 3750 2511 3984 
Q 2250 4219 1831 4219 
Q 1534 4219 1204 4116 
Q 875 4013 500 3803 
L 500 4441 
Q 881 4594 1212 4672 
Q 1544 4750 1819 4750 
Q 2544 4750 2975 4387 
Q 3406 4025 3406 3419 
Q 3406 3131 3298 2873 
Q 3191 2616 2906 2266 
Q 2828 2175 2409 1742 
Q 1991 1309 1228 531 
z
" transform="scale(0.015625)"/>
     </defs>
     <use xlink:href="#DejaVuSans-52"/>
     <use xlink:href="#DejaVuSans-32" transform="translate(69.482422 0)"/>
    </g>
    <!-- 220$\Omega$ -->
    <g transform="translate(173.548 100.917812) scale(0.14 -0.14)">
     <use xlink:href="#DejaVuSans-32" transform="translate(0 0.78125)"/>
     <use xlink:href="#DejaVuSans-32" transform="translate(63.623047 0.78125)"/>
     <use xlink:href="#DejaVuSans-30" transform="translate(127.246094 0.78125)"/>
     <use xlink:href="#DejaVuSans-3a9" transform="translate(190.869141 0.78125)"/>
    </g>
   </g>
   <g id="patch_3">
    <path d="M 223.668 47.98 
C 224.384048 47.98 225.070866 47.695511 225.577188 47.189188 
C 226.083511 46.682866 226.368 45.996048 226.368 45.28 
C 226.368 44.563952 226.083511 43.877134 225.577188 43.370812 
C 225.070866 42.864489 224.384048 42.58 223.668 42.58 
C 222.951952 42.58 222.265134 42.864489 221.758812 43.370812 
C 221.252489 43.877134 220.968 44.563952 220.968 45.28 
C 220.968 45.996048 221.252489 46.682866 221.758812 47.189188 
C 222.265134 47.695511 222.951952 47.98 223.668 47.98 
z
" clip-path="url(#p77c8c983a9)" style="stroke: #000000; stroke-width: 2; stroke-linejoin: miter"/>
   </g>
   <g id="text_4">
    <!-- VOUT -->
    <g transform="translate(204.093156 36.068437) scale(0.14 -0.14)">
     <defs>
      <path id="DejaVuSans-4f" d="M 2522 4238 
Q 1834 4238 1429 3725 
Q 1025 3213 1025 2328 
Q 1025 1447 1429 934 
Q 1834 422 2522 422 
Q 3209 422 3611 934 
Q 4013 1447 4013 2328 
Q 4013 3213 3611 3725 
Q 3209 4238 2522 4238 
z
M 2522 4750 
Q 3503 4750 4090 4092 
Q 4678 3434 4678 2328 
Q 4678 1225 4090 567 
Q 3503 -91 2522 -91 
Q 1538 -91 948 565 
Q 359 1222 359 2328 
Q 359 3434 948 4092 
Q 1538 4750 2522 4750 
z
" transform="scale(0.015625)"/>
      <path id="DejaVuSans-55" d="M 556 4666 
L 1191 4666 
L 1191 1831 
Q 1191 1081 1462 751 
Q 1734 422 2344 422 
Q 2950 422 3222 751 
Q 3494 1081 3494 1831 
L 3494 4666 
L 4128 4666 
L 4128 1753 
Q 4128 841 3676 375 
Q 3225 -91 2344 -91 
Q 1459 -91 1007 375 
Q 556 841 556 1753 
L 556 4666 
z
" transform="scale(0.015625)"/>
      <path id="DejaVuSans-54" d="M -19 4666 
L 3928 4666 
L 3928 4134 
L 2272 4134 
L 2272 0 
L 1638 0 
L 1638 4134 
L -19 4134 
L -19 4666 
z
" transform="scale(0.015625)"/>
     </defs>
     <use xlink:href="#DejaVuSans-56"/>
     <use xlink:href="#DejaVuSans-4f" transform="translate(66.658203 0)"/>
     <use xlink:href="#DejaVuSans-55" transform="translate(145.369141 0)"/>
     <use xlink:href="#DejaVuSans-54" transform="translate(218.5625 0)"/>
    </g>
   </g>
  </g>
 </g>
 <defs>
  <clipPath id="p77c8c983a9">
   <rect x="0" y="0" width="247.626" height="163"/>
  </clipPath>
 </defs>
</svg>
